<svg width="37" height="37" xmlns="http://www.w3.org/2000/svg" xmlns:xlink="http://www.w3.org/1999/xlink" xml:space="preserve" overflow="hidden"><defs><clipPath id="clip0"><rect x="26" y="267" width="37" height="37"/></clipPath></defs><g clip-path="url(#clip0)" transform="translate(-26 -267)"><path d="M2.3125 18.5C2.3125 9.55352 9.56074 2.3125 18.4855 2.3125 19.3065 2.3125 20.6318 2.43304 21.4412 2.58321 22.1361 2.71162 22.2903 3.64045 21.6782 3.98805 17.7051 6.25098 15.2625 10.4496 15.2625 15.0168 15.2625 22.9443 22.4681 28.9641 30.3154 27.4682 31.0064 27.3377 31.4919 28.142 31.046 28.6931 28.0318 32.4184 23.4719 34.6875 18.4855 34.6875 9.54629 34.6875 2.3125 27.432 2.3125 18.5Z" transform="matrix(-1 0 0 1 63 267)"/></g></svg>